# xmcd
#
# Track frame offsets: 
#        150
#        25355
#        41002
#        62517
#        79905
#        99577
#        124032
#        177452
#        211822
#        224377
#
# Disc length: 4384 seconds
#
# Revision: 0
# Processed by: cddbd v1.5.2PL0 Copyright (c) Steve Scherf et al.
# Submitted via: ExactAudioCopy v0.99pb5
#
DISCID=8b111e0a
DTITLE=Canned Heat - Canned Heat Woodstock Homecoming
DYEAR=1969
DGENRE=Blues
TTITLE0=On the Road Again
TTITLE1=Bullfrog Blues
TTITLE2=Chicken Shack Boogie
TTITLE3=Stand Up (For What You Are)
TTITLE4=Going Up the Country
TTITLE5=Don't Know Where She Went (She Split)
TTITLE6=Human Condition
TTITLE7=Shake 'N' Boogie
TTITLE8=Let's Work Together
TTITLE9=Refried Hockey Boogie
EXTD=
EXTT0=
EXTT1=
EXTT2=
EXTT3=
EXTT4=
EXTT5=
EXTT6=
EXTT7=
EXTT8=
EXTT9=
PLAYORDER=
